<svg preserveAspectRatio="xMidYMid meet" data-bbox="4 4 58 58" xmlns="http://www.w3.org/2000/svg" viewBox="0 0 66 66" height="66" width="66" data-type="ugc" role="presentation" aria-hidden="true" aria-label="">
    <g>
        <path stroke-width="2" stroke="#ffffff" d="M17 55.5a6.5 6.5 0 1 1-13 0 6.5 6.5 0 0 1 13 0z" fill="none"></path>
        <path stroke-dasharray="2 2" stroke-width="2" stroke="#ffffff" d="M17 33a6.5 6.5 0 1 1-13 0 6.5 6.5 0 0 1 13 0z" fill="none"></path>
        <path stroke-width="2" stroke="#ffffff" d="M17 10.5a6.5 6.5 0 1 1-13 0 6.5 6.5 0 0 1 13 0z" fill="none"></path>
        <path stroke-dasharray="2 2" stroke-width="2" stroke="#ffffff" d="M39.5 55.5a6.5 6.5 0 1 1-13 0 6.5 6.5 0 0 1 13 0z" fill="none"></path>
        <path stroke-width="2" stroke="#ffffff" d="M39.5 33a6.5 6.5 0 1 1-13 0 6.5 6.5 0 0 1 13 0z" fill="none"></path>
        <path stroke-dasharray="2 2" stroke-width="2" stroke="#ffffff" d="M39.5 10.5a6.5 6.5 0 1 1-13 0 6.5 6.5 0 0 1 13 0z" fill="none"></path>
        <path stroke-width="2" stroke="#ffffff" d="M62 55.5a6.5 6.5 0 1 1-13 0 6.5 6.5 0 0 1 13 0z" fill="none"></path>
        <path stroke-dasharray="2 2" stroke-width="2" stroke="#ffffff" d="M62 33a6.5 6.5 0 1 1-13 0 6.5 6.5 0 0 1 13 0z" fill="none"></path>
        <path stroke-width="2" stroke="#ffffff" d="M62 10.5a6.5 6.5 0 1 1-13 0 6.5 6.5 0 0 1 13 0z" fill="none"></path>
    </g>
</svg>